PathFileType	4	(X/Y/Z)	./resultDataOpenSim/trcMotMarkerGrf/sub09/qtm-04-04.trc
DataRate	CameraRate	NumFrames	NumMarkers	Units	OrigDataRate	OrigDataStartFrame	OrigNumFrames
250.000000	250.000000	9	24	m	250.000000	373	496
Frame#	Time	L.Toe.Tip			R.Toe.Tip			L.Ankle.Lat			R.Ankle.Lat			L.Ankle.Med			R.Ankle.Med			L.Heel			R.Heel			L.Knee.Lat			R.Knee.Lat			L.Knee.Med			R.Knee.Med			L.Thigh.Upper			R.Thigh.Upper			L.ASIS			R.ASIS			V.Sacral			L.Acromium			R.Acromium			C7			L.Elbow			R.Elbow			L.Wrist.Lat			R.Wrist.Lat
		X1	Y1	Z1	X2	Y2	Z2	X3	Y3	Z3	X4	Y4	Z4	X5	Y5	Z5	X6	Y6	Z6	X7	Y7	Z7	X8	Y8	Z8	X9	Y9	Z9	X10	Y10	Z10	X11	Y11	Z11	X12	Y12	Z12	X13	Y13	Z13	X14	Y14	Z14	X15	Y15	Z15	X16	Y16	Z16	X17	Y17	Z17	X18	Y18	Z18	X19	Y19	Z19	X20	Y20	Z20	X21	Y21	Z21	X22	Y22	Z22	X23	Y23	Z23	X24	Y24	Z24

373	1.488	0.8872533	0.12631111	-0.0064185502	1.0247028	0.039492421	0.10646794	0.8054131	0.25423007	-0.039255607	0.87691425	0.055721764	0.14157165	0.8318168	0.24507199	0.055720844	0.88984874	0.097038317	0.051797771	0.72565689	0.27087888	0.005343353	0.80825705	0.038434478	0.091742876	1.112841	0.51942809	-0.053475945	0.9936181	0.50201694	0.21805284	1.1220952	0.51194857	0.075192919	0.97259832	0.49060773	0.08818655	0.92802738	0.88827351	-0.08864343	0.9206225	0.90212243	0.28133644	0.9971949	0.9757173	-0.030033323	1.0052593	0.98596969	0.20686266	0.83288123	1.03795	0.087737517	0.98759597	1.4306697	-0.094306453	0.97589232	1.4476531	0.23735409	0.91125981	1.4873077	0.069877581	0.85453272	1.0848291	-0.13746316	0.84300987	1.1060676	0.33377073	0.97974651	0.85682127	-0.17987465	1.0279525	0.89787926	0.32699478
374	1.492	0.90509589	0.124166	-0.0060312726	1.0248197	0.039448923	0.10651056	0.81985865	0.24962354	-0.038980982	0.87700259	0.05591027	0.14136421	0.8467044	0.24106763	0.055893461	0.89021624	0.097247338	0.051733886	0.73973741	0.26426499	0.005478757	0.80846764	0.038664278	0.091439228	1.1216804	0.52179735	-0.05296045	0.99502869	0.50210038	0.21852194	1.1270999	0.51428561	0.074588424	0.97415255	0.49050012	0.088676524	0.93389246	0.88932396	-0.088786459	0.92488934	0.90253208	0.28133135	1.0026253	0.97676663	-0.029802389	1.0102378	0.98652555	0.20713773	0.83811631	1.0385794	0.087712336	0.99264033	1.4313139	-0.094241192	0.98113116	1.4484484	0.23743167	0.91643057	1.4880175	0.06996878	0.85854102	1.0860272	-0.1374199	0.84841712	1.1066379	0.33418533	0.98217164	0.85737947	-0.18078089	1.0346097	0.89952367	0.32668783
375	1.496	0.92315992	0.12196783	-0.0056112829	1.0250394	0.039453015	0.10651082	0.83444348	0.24484179	-0.038704596	0.87709705	0.056091694	0.14112761	0.8614544	0.23694821	0.056168636	0.89038832	0.097500782	0.051770003	0.7540103	0.2574452	0.0056194304	0.80863019	0.038967523	0.091068528	1.1303259	0.52402005	-0.052502523	0.99632324	0.50206387	0.21875866	1.1340088	0.51666557	0.074442822	0.97552837	0.49049375	0.088918088	0.93974537	0.89029798	-0.088893767	0.92928089	0.90289827	0.28134249	1.0080817	0.97775484	-0.029590588	1.0152262	0.98702619	0.2073951	0.84335337	1.039149	0.087665645	0.99769821	1.4319045	-0.094168858	0.98636539	1.4491821	0.23751221	0.92161196	1.4886697	0.070071763	0.86259266	1.0871776	-0.13739873	0.8538243	1.1071499	0.33459576	0.98464581	0.85790953	-0.18165475	1.0412356	0.90111016	0.32637999
376	1.5	0.94136173	0.11969069	-0.0051790196	1.0253377	0.039480862	0.10646261	0.84918845	0.23990435	-0.038421854	0.87719681	0.056266752	0.14086562	0.87623297	0.23272552	0.056489064	0.89052852	0.097880323	0.05189548	0.76845257	0.25043309	0.0057838894	0.80873466	0.039284636	0.090571931	1.1387307	0.52609721	-0.052092343	0.99752564	0.50195571	0.21878167	1.1419071	0.519	0.074544505	0.9769374	0.49048108	0.089013884	0.94552705	0.89118643	-0.08895797	0.93388495	0.90323631	0.28135559	1.0135798	0.97868437	-0.029401712	1.0202229	0.98747668	0.20764146	0.84857274	1.0396574	0.087606429	1.0027664	1.4324361	-0.094093706	0.99159067	1.4498539	0.23759077	0.92679969	1.489277	0.070181349	0.86670082	1.0882767	-0.13740437	0.85923512	1.1076147	0.33500863	0.98716713	0.85840997	-0.18249967	1.0478289	0.9026402	0.32607216
377	1.504	0.95960415	0.11733985	-0.0047263447	1.0255418	0.039459217	0.10642152	0.86410972	0.23482498	-0.038130486	0.87729873	0.056445259	0.14059063	0.89107961	0.22841606	0.05683108	0.89078611	0.098369056	0.051993648	0.78308121	0.24323715	0.0059349676	0.80875872	0.039585475	0.089905731	1.1468608	0.52804222	-0.051712424	0.99870651	0.50183263	0.21874934	1.1499839	0.52121577	0.074703796	0.97843626	0.49043237	0.089023422	0.95125319	0.8919881	-0.088997794	0.93860542	0.9035554	0.28136003	1.0191039	0.97955101	-0.029228724	1.0252279	0.98788282	0.20788608	0.85376798	1.040101	0.0875447	1.0078421	1.4329068	-0.094021972	0.99681308	1.4504645	0.23767342	0.93197158	1.4898436	0.070289204	0.87084723	1.0893168	-0.13743065	0.8646322	1.1080355	0.3354184	0.98973094	0.8588801	-0.18331559	1.0543835	0.90411597	0.32576394
378	1.508	0.97785468	0.11495692	-0.0042289306	1.0255325	0.039369932	0.10644882	0.87920208	0.22961581	-0.037829602	0.87739507	0.05663477	0.14031198	0.90597533	0.22401881	0.057182317	0.89112344	0.098806595	0.051920748	0.79790296	0.23586338	0.0060672811	0.80872693	0.039898353	0.089147152	1.1547253	0.52987149	-0.051359694	0.99992427	0.5017352	0.21880282	1.157916	0.52327926	0.074848013	0.97988032	0.49043133	0.088888272	0.95695118	0.89270885	-0.08903345	0.94316566	0.90384837	0.28139329	1.0246081	0.98034546	-0.029056155	1.0302442	0.98824934	0.20813425	0.85894364	1.0404777	0.08748131	1.0129232	1.4333215	-0.09395416	1.0020413	1.451015	0.23776995	0.93709117	1.4903574	0.070383047	0.8750062	1.0902912	-0.1374774	0.86998642	1.1084009	0.33580565	0.99233752	0.85931942	-0.18410134	1.0608935	0.9055379	0.32545381
379	1.512	0.99613007	0.11258837	-0.0036584013	1.0254496	0.039298047	0.10653698	0.89444936	0.22428742	-0.03751336	0.87747672	0.056831535	0.14002819	0.92092906	0.2195041	0.057523884	0.89141843	0.099044443	0.051590573	0.81290765	0.22832509	0.0062193755	0.80871369	0.040256854	0.088446818	1.1624282	0.53157886	-0.051038959	1.001177	0.50166107	0.21894378	1.165652	0.52517746	0.074967073	0.98113683	0.49056153	0.088542834	0.96262911	0.89335604	-0.089074248	0.94713003	0.90408301	0.28155211	1.0300688	0.98106256	-0.02887306	1.035271	0.98857821	0.20838395	0.8641135	1.0407855	0.087405707	1.018007	1.4336857	-0.093884354	1.0072748	1.4515058	0.2378813	0.94214421	1.4908077	0.07045905	0.87916975	1.0912014	-0.13754718	0.87527385	1.1086928	0.33615067	0.99499209	0.85972886	-0.18485954	1.0673638	0.90690284	0.32514149
380	1.516	1.014475	0.11025827	-0.0030142792	1.0255075	0.039326519	0.10664025	0.90984172	0.21884962	-0.037174817	0.8775428	0.057025247	0.13973204	0.93598361	0.21486197	0.057849633	0.89159874	0.099088738	0.051011368	0.82810072	0.22064472	0.0064141014	0.80877331	0.040642938	0.087874341	1.1701127	0.53313118	-0.050748421	1.0024384	0.50158925	0.21911423	1.1732272	0.52690287	0.075067118	0.98222812	0.49081293	0.088061343	0.96828534	0.89393134	-0.089118451	0.95018666	0.90422843	0.28191006	1.0355055	0.98170295	-0.028683763	1.0403033	0.98886852	0.20863032	0.86929095	1.0410182	0.087307699	1.0230932	1.4340007	-0.093806585	1.0125043	1.4519375	0.23799785	0.94718595	1.4911885	0.07054415	0.88332934	1.0920547	-0.1376194	0.88048199	1.108901	0.33644333	0.99770001	0.86010773	-0.18559508	1.0738092	0.90820536	0.32482961
381	1.52	1.0329223	0.10796742	-0.0023417039	1.0256997	0.039431665	0.10673766	0.92537677	0.21331698	-0.036812803	0.87759981	0.057208624	0.13942047	0.95128214	0.21014719	0.058159845	0.89171348	0.099069991	0.050322739	0.84350763	0.21285274	0.0066412884	0.80889888	0.041007477	0.087385943	1.1778063	0.53450858	-0.050489526	1.0036847	0.50150114	0.21926514	1.1806647	0.52844464	0.075150934	0.98330858	0.49108924	0.087643106	0.97392121	0.8944305	-0.089158307	0.95269232	0.90429944	0.2823835	1.0409467	0.98226655	-0.028498783	1.0453342	0.98911829	0.20887003	0.87447603	1.0411726	0.087186494	1.0281855	1.4342668	-0.093717545	1.0177216	1.4523094	0.23810888	0.9522959	1.4915012	0.07066844	0.88748544	1.0928629	-0.13765916	0.88562373	1.1090319	0.33669058	1.0004627	0.86045076	-0.18631129	1.0802374	0.90944266	0.32452195
